<svg height="512" viewBox="0 0 128 128" width="512" xmlns="http://www.w3.org/2000/svg"><g><path d="m98.093 29.792h-68.186a5.708 5.708 0 0 0 -5.707 5.708v44.334a5.709 5.709 0 0 0 5.708 5.708h25.76l8.332 12.666 8.333-12.666h25.76a5.709 5.709 0 0 0 5.708-5.708v-44.334a5.708 5.708 0 0 0 -5.708-5.708z" fill="#fb4d4f"/><g fill="#eaf2f9"><circle cx="56.138" cy="49.418" r="7.6"/><path d="m56.138 57.018a16.138 16.138 0 0 0 -16.138 16.138h32.276a16.138 16.138 0 0 0 -16.138-16.138z"/><path d="m88 68.013h-1.568v-23.246a1.75 1.75 0 0 0 -2.724-1.454l-3.569 2.387a1.75 1.75 0 1 0 1.947 2.908l.846-.567v19.972h-1.82a1.75 1.75 0 0 0 0 3.5h6.888a1.75 1.75 0 0 0 0-3.5z"/></g></g></svg>