<svg width="48" height="48" viewBox="0 0 48 48" fill="none" xmlns="http://www.w3.org/2000/svg">
<path d="M29.5397 11.0765C23.4224 11.0765 11.1689 6.11755 11.1689 0H11.0784C11.0784 4.8962 13.0233 9.59185 16.4854 13.054C19.9474 16.5162 24.643 18.4614 29.5392 18.4616C32.4769 18.4616 35.2944 19.6286 37.3718 21.7059C39.4492 23.7831 40.6162 26.6006 40.6162 29.5383C40.6169 32.476 39.4503 35.2939 37.3734 37.3716C35.2965 39.4494 32.4792 40.6169 29.5415 40.6176C26.6036 40.618 23.7859 39.4515 21.7082 37.3746C19.6304 35.2976 18.4628 32.4804 18.4623 29.5427C18.4622 27.1182 17.9846 24.7175 17.0567 22.4777C16.1289 20.2379 14.769 18.2027 13.0546 16.4884C11.3402 14.7742 9.30496 13.4143 7.06504 12.4866C4.82514 11.5589 2.42442 11.0815 0 11.0816V11.1715C6.11639 11.1715 11.0754 23.4197 11.0777 29.5381H11.0765C11.0765 33.1895 12.1592 36.7589 14.1877 39.7949C16.2162 42.8309 19.0995 45.1972 22.4728 46.5945C25.8462 47.992 29.5582 48.3578 33.1395 47.6454C36.7206 46.9333 40.0102 45.175 42.5923 42.5934C45.1741 40.0116 46.9326 36.7222 47.6452 33.1409C48.3578 29.5598 47.9923 25.8478 46.5952 22.4743C45.1981 19.1008 42.832 16.2174 39.7963 14.1886C36.7602 12.1598 33.1909 11.0768 29.5397 11.0765Z" fill="url(#paint0_linear)"/>
<defs>
<linearGradient id="paint0_linear" x1="38.2561" y1="41.5201" x2="10.368" y2="3.21601" gradientUnits="userSpaceOnUse">
<stop offset="0.295" stop-color="#E73959"/>
<stop offset="0.384" stop-color="#E73D58"/>
<stop offset="0.477" stop-color="#E74955"/>
<stop offset="0.571" stop-color="#E95E51"/>
<stop offset="0.666" stop-color="#EA7B4B"/>
<stop offset="0.761" stop-color="#EDA044"/>
<stop offset="0.857" stop-color="#EFCE3B"/>
<stop offset="0.868" stop-color="#F0D43A"/>
</linearGradient>
</defs>
</svg>
