<svg width="50" height="50" viewBox="0 0 50 50" fill="none" xmlns="http://www.w3.org/2000/svg">
<path fill-rule="evenodd" clip-rule="evenodd" d="M38.0859 0C45.3125 0 50 4.6875 50 11.9141V38.0859C50 45.3125 45.3125 50 38.0859 50H11.9141C4.6875 50 0 45.3125 0 38.0859V11.9141C0 4.6875 4.6875 0 11.9141 0H38.0859Z" fill="url(#paint0_linear)"/>
<mask id="mask0" mask-type="alpha" maskUnits="userSpaceOnUse" x="0" y="0" width="50" height="50">
<path fill-rule="evenodd" clip-rule="evenodd" d="M38.0859 0C45.3125 0 50 4.6875 50 11.9141V38.0859C50 45.3125 45.3125 50 38.0859 50H11.9141C4.6875 50 0 45.3125 0 38.0859V11.9141C0 4.6875 4.6875 0 11.9141 0H38.0859Z" fill="white"/>
</mask>
<g mask="url(#mask0)">
<path fill-rule="evenodd" clip-rule="evenodd" d="M15.0879 73.1446C34.5581 73.1446 50.3416 57.3608 50.3416 37.8906C50.3416 18.4204 34.5581 2.63672 15.0879 2.63672C-4.38232 2.63672 -20.166 18.4204 -20.166 37.8906C-20.166 57.3608 -4.38232 73.1446 15.0879 73.1446Z" fill="url(#paint1_radial)"/>
<g filter="url(#filter0_i)">
<path fill-rule="evenodd" clip-rule="evenodd" d="M25 40.4167C33.3994 40.4167 40.2084 33.6077 40.2084 25.2083C40.2084 16.809 33.3994 9.99999 25 9.99999C16.6007 9.99999 9.79169 16.809 9.79169 25.2083C9.79169 33.6077 16.6007 40.4167 25 40.4167ZM25 43.3333C35.1252 43.3333 43.3334 35.1252 43.3334 25C43.3334 14.8748 35.1252 6.66666 25 6.66666C14.8748 6.66666 6.66669 14.8748 6.66669 25C6.66669 35.1252 14.8748 43.3333 25 43.3333Z" fill="black" fill-opacity="0.01"/>
</g>
<path fill-rule="evenodd" clip-rule="evenodd" d="M38.0859 0C45.3125 0 50 4.6875 50 11.9141V38.0859C50 45.3125 45.3125 50 38.0859 50H11.9141C4.6875 50 0 45.3125 0 38.0859V11.9141C0 4.6875 4.6875 0 11.9141 0H38.0859ZM25 43.3333C35.1252 43.3333 43.3333 35.1252 43.3333 25C43.3333 14.8748 35.1252 6.66667 25 6.66667C14.8748 6.66667 6.66667 14.8748 6.66667 25C6.66667 35.1252 14.8748 43.3333 25 43.3333ZM25 40.4167C33.3993 40.4167 40.2083 33.6077 40.2083 25.2083C40.2083 16.809 33.3993 10 25 10C16.6007 10 9.79167 16.809 9.79167 25.2083C9.79167 33.6077 16.6007 40.4167 25 40.4167Z" fill="white"/>
<path fill-rule="evenodd" clip-rule="evenodd" d="M38.0859 0C45.3125 0 50 4.6875 50 11.9141V38.0859C50 45.3125 45.3125 50 38.0859 50H11.9141C4.6875 50 0 45.3125 0 38.0859V11.9141C0 4.6875 4.6875 0 11.9141 0H38.0859Z" stroke="#A4A4A4" stroke-width="0.5"/>
</g>
<defs>
<filter id="filter0_i" x="6.66669" y="6.66666" width="36.6667" height="36.6667" filterUnits="userSpaceOnUse" color-interpolation-filters="sRGB">
<feFlood flood-opacity="0" result="BackgroundImageFix"/>
<feBlend mode="normal" in="SourceGraphic" in2="BackgroundImageFix" result="shape"/>
<feColorMatrix in="SourceAlpha" type="matrix" values="0 0 0 0 0 0 0 0 0 0 0 0 0 0 0 0 0 0 127 0" result="hardAlpha"/>
<feOffset/>
<feGaussianBlur stdDeviation="1.5"/>
<feComposite in2="hardAlpha" operator="arithmetic" k2="-1" k3="1"/>
<feColorMatrix type="matrix" values="0 0 0 0 0 0 0 0 0 0 0 0 0 0 0 0 0 0 0.115885 0"/>
<feBlend mode="normal" in2="shape" result="effect1_innerShadow"/>
</filter>
<linearGradient id="paint0_linear" x1="-0.976067" y1="4.41487" x2="12.8745" y2="64.065" gradientUnits="userSpaceOnUse">
<stop stop-color="#4E60D3"/>
<stop offset="0.148736" stop-color="#913BAF"/>
<stop offset="0.315836" stop-color="#D52D88"/>
<stop offset="0.493765" stop-color="#D72E85"/>
<stop offset="0.81651" stop-color="#E6366D"/>
<stop offset="1" stop-color="#F26D4F"/>
</linearGradient>
<radialGradient id="paint1_radial" cx="0" cy="0" r="1" gradientUnits="userSpaceOnUse" gradientTransform="translate(15.0879 49.985) rotate(15.5573) scale(45.4808 42.8292)">
<stop stop-color="#FED980"/>
<stop offset="0.178735" stop-color="#FCAE49"/>
<stop offset="0.20861" stop-color="#FCB04B"/>
<stop offset="0.555546" stop-color="#F06745"/>
<stop offset="1" stop-color="#E83D5C" stop-opacity="0.01"/>
</radialGradient>
</defs>
</svg>
